<svg width="308" height="150" viewBox="0 0 308 150" fill="none" xmlns="http://www.w3.org/2000/svg">
<g opacity="0.2">
<circle cx="2.08346" cy="2.08346" r="2.08346" fill="#FF5959"/>
<circle cx="2.08346" cy="83.1018" r="2.08346" fill="#FF5959"/>
<circle cx="83.1018" cy="2.08346" r="2.08346" fill="#FF5959"/>
<circle cx="83.1018" cy="83.1018" r="2.08346" fill="#FF5959"/>
<circle cx="2.08346" cy="18.2871" r="2.08346" fill="#FF5959"/>
<circle cx="2.08346" cy="99.3055" r="2.08346" fill="#FF5959"/>
<circle cx="83.1018" cy="18.2871" r="2.08346" fill="#FF5959"/>
<circle cx="83.1018" cy="99.3055" r="2.08346" fill="#FF5959"/>
<circle cx="2.08346" cy="34.4908" r="2.08346" fill="#FF5959"/>
<circle cx="2.08346" cy="115.509" r="2.08346" fill="#FF5959"/>
<circle cx="83.1018" cy="34.4908" r="2.08346" fill="#FF5959"/>
<circle cx="83.1018" cy="115.509" r="2.08346" fill="#FF5959"/>
<circle cx="2.08346" cy="50.6944" r="2.08346" fill="#FF5959"/>
<circle cx="2.08346" cy="131.713" r="2.08346" fill="#FF5959"/>
<circle cx="83.1018" cy="50.6944" r="2.08346" fill="#FF5959"/>
<circle cx="83.1018" cy="131.713" r="2.08346" fill="#FF5959"/>
<circle cx="2.08346" cy="66.8982" r="2.08346" fill="#FF5959"/>
<circle cx="2.08346" cy="147.917" r="2.08346" fill="#FF5959"/>
<circle cx="83.1018" cy="66.8982" r="2.08346" fill="#FF5959"/>
<circle cx="83.1018" cy="147.917" r="2.08346" fill="#FF5959"/>
<circle cx="18.2871" cy="2.08346" r="2.08346" fill="#FF5959"/>
<circle cx="18.2871" cy="83.1018" r="2.08346" fill="#FF5959"/>
<circle cx="99.3055" cy="2.08346" r="2.08346" fill="#FF5959"/>
<circle cx="99.3055" cy="83.1018" r="2.08346" fill="#FF5959"/>
<circle cx="18.2871" cy="18.2871" r="2.08346" fill="#FF5959"/>
<circle cx="18.2871" cy="99.3055" r="2.08346" fill="#FF5959"/>
<circle cx="99.3055" cy="18.2871" r="2.08346" fill="#FF5959"/>
<circle cx="99.3055" cy="99.3055" r="2.08346" fill="#FF5959"/>
<circle cx="18.2871" cy="34.4908" r="2.08346" fill="#FF5959"/>
<circle cx="18.2871" cy="115.509" r="2.08346" fill="#FF5959"/>
<circle cx="99.3055" cy="34.4908" r="2.08346" fill="#FF5959"/>
<circle cx="99.3055" cy="115.509" r="2.08346" fill="#FF5959"/>
<circle cx="18.2871" cy="50.6944" r="2.08346" fill="#FF5959"/>
<circle cx="18.2871" cy="131.713" r="2.08346" fill="#FF5959"/>
<circle cx="99.3055" cy="50.6944" r="2.08346" fill="#FF5959"/>
<circle cx="99.3055" cy="131.713" r="2.08346" fill="#FF5959"/>
<circle cx="18.2871" cy="66.8982" r="2.08346" fill="#FF5959"/>
<circle cx="18.2871" cy="147.917" r="2.08346" fill="#FF5959"/>
<circle cx="99.3055" cy="66.8982" r="2.08346" fill="#FF5959"/>
<circle cx="99.3055" cy="147.917" r="2.08346" fill="#FF5959"/>
<circle cx="34.4908" cy="2.08346" r="2.08346" fill="#FF5959"/>
<circle cx="34.4908" cy="83.1018" r="2.08346" fill="#FF5959"/>
<circle cx="115.509" cy="2.08346" r="2.08346" fill="#FF5959"/>
<circle cx="115.509" cy="83.1018" r="2.08346" fill="#FF5959"/>
<circle cx="34.4908" cy="18.2871" r="2.08346" fill="#FF5959"/>
<circle cx="34.4908" cy="99.3055" r="2.08346" fill="#FF5959"/>
<circle cx="115.509" cy="18.2871" r="2.08346" fill="#FF5959"/>
<circle cx="115.509" cy="99.3055" r="2.08346" fill="#FF5959"/>
<circle cx="34.4908" cy="34.4908" r="2.08346" fill="#FF5959"/>
<circle cx="34.4908" cy="115.509" r="2.08346" fill="#FF5959"/>
<circle cx="115.509" cy="34.4908" r="2.08346" fill="#FF5959"/>
<circle cx="115.509" cy="115.509" r="2.08346" fill="#FF5959"/>
<circle cx="34.4908" cy="50.6944" r="2.08346" fill="#FF5959"/>
<circle cx="34.4908" cy="131.713" r="2.08346" fill="#FF5959"/>
<circle cx="115.509" cy="50.6944" r="2.08346" fill="#FF5959"/>
<circle cx="115.509" cy="131.713" r="2.08346" fill="#FF5959"/>
<circle cx="34.4908" cy="66.8982" r="2.08346" fill="#FF5959"/>
<circle cx="34.4908" cy="147.917" r="2.08346" fill="#FF5959"/>
<circle cx="115.509" cy="66.8982" r="2.08346" fill="#FF5959"/>
<circle cx="115.509" cy="147.917" r="2.08346" fill="#FF5959"/>
<circle cx="50.6945" cy="2.08346" r="2.08346" fill="#FF5959"/>
<circle cx="50.6945" cy="83.1018" r="2.08346" fill="#FF5959"/>
<circle cx="131.713" cy="2.08346" r="2.08346" fill="#FF5959"/>
<circle cx="131.713" cy="83.1018" r="2.08346" fill="#FF5959"/>
<circle cx="50.6945" cy="18.2871" r="2.08346" fill="#FF5959"/>
<circle cx="50.6945" cy="99.3055" r="2.08346" fill="#FF5959"/>
<circle cx="131.713" cy="18.2871" r="2.08346" fill="#FF5959"/>
<circle cx="131.713" cy="99.3055" r="2.08346" fill="#FF5959"/>
<circle cx="50.6945" cy="34.4908" r="2.08346" fill="#FF5959"/>
<circle cx="50.6945" cy="115.509" r="2.08346" fill="#FF5959"/>
<circle cx="131.713" cy="34.4908" r="2.08346" fill="#FF5959"/>
<circle cx="131.713" cy="115.509" r="2.08346" fill="#FF5959"/>
<circle cx="50.6945" cy="50.6944" r="2.08346" fill="#FF5959"/>
<circle cx="50.6945" cy="131.713" r="2.08346" fill="#FF5959"/>
<circle cx="131.713" cy="50.6944" r="2.08346" fill="#FF5959"/>
<circle cx="131.713" cy="131.713" r="2.08346" fill="#FF5959"/>
<circle cx="50.6945" cy="66.8982" r="2.08346" fill="#FF5959"/>
<circle cx="50.6945" cy="147.917" r="2.08346" fill="#FF5959"/>
<circle cx="131.713" cy="66.8982" r="2.08346" fill="#FF5959"/>
<circle cx="131.713" cy="147.917" r="2.08346" fill="#FF5959"/>
<circle cx="66.8981" cy="2.08346" r="2.08346" fill="#FF5959"/>
<circle cx="66.8981" cy="83.1018" r="2.08346" fill="#FF5959"/>
<circle cx="147.916" cy="2.08346" r="2.08346" fill="#FF5959"/>
<circle cx="147.916" cy="83.1018" r="2.08346" fill="#FF5959"/>
<circle cx="66.8981" cy="18.2871" r="2.08346" fill="#FF5959"/>
<circle cx="66.8981" cy="99.3055" r="2.08346" fill="#FF5959"/>
<circle cx="147.916" cy="18.2871" r="2.08346" fill="#FF5959"/>
<circle cx="147.916" cy="99.3055" r="2.08346" fill="#FF5959"/>
<circle cx="66.8981" cy="34.4908" r="2.08346" fill="#FF5959"/>
<circle cx="66.8981" cy="115.509" r="2.08346" fill="#FF5959"/>
<circle cx="147.916" cy="34.4908" r="2.08346" fill="#FF5959"/>
<circle cx="147.916" cy="115.509" r="2.08346" fill="#FF5959"/>
<circle cx="66.8981" cy="50.6944" r="2.08346" fill="#FF5959"/>
<circle cx="66.8981" cy="131.713" r="2.08346" fill="#FF5959"/>
<circle cx="147.916" cy="50.6944" r="2.08346" fill="#FF5959"/>
<circle cx="147.916" cy="131.713" r="2.08346" fill="#FF5959"/>
<circle cx="66.8981" cy="66.8982" r="2.08346" fill="#FF5959"/>
<circle cx="66.8981" cy="147.917" r="2.08346" fill="#FF5959"/>
<circle cx="147.916" cy="66.8982" r="2.08346" fill="#FF5959"/>
<circle cx="147.916" cy="147.917" r="2.08346" fill="#FF5959"/>
<circle cx="160.083" cy="2.08346" r="2.08346" fill="#FF5959"/>
<circle cx="160.083" cy="83.1018" r="2.08346" fill="#FF5959"/>
<circle cx="241.102" cy="2.08346" r="2.08346" fill="#FF5959"/>
<circle cx="241.102" cy="83.1018" r="2.08346" fill="#FF5959"/>
<circle cx="160.083" cy="18.2871" r="2.08346" fill="#FF5959"/>
<circle cx="160.083" cy="99.3055" r="2.08346" fill="#FF5959"/>
<circle cx="241.102" cy="18.2871" r="2.08346" fill="#FF5959"/>
<circle cx="241.102" cy="99.3055" r="2.08346" fill="#FF5959"/>
<circle cx="160.083" cy="34.4908" r="2.08346" fill="#FF5959"/>
<circle cx="160.083" cy="115.509" r="2.08346" fill="#FF5959"/>
<circle cx="241.102" cy="34.4908" r="2.08346" fill="#FF5959"/>
<circle cx="241.102" cy="115.509" r="2.08346" fill="#FF5959"/>
<circle cx="160.083" cy="50.6944" r="2.08346" fill="#FF5959"/>
<circle cx="160.083" cy="131.713" r="2.08346" fill="#FF5959"/>
<circle cx="241.102" cy="50.6944" r="2.08346" fill="#FF5959"/>
<circle cx="241.102" cy="131.713" r="2.08346" fill="#FF5959"/>
<circle cx="160.083" cy="66.8982" r="2.08346" fill="#FF5959"/>
<circle cx="160.083" cy="147.917" r="2.08346" fill="#FF5959"/>
<circle cx="241.102" cy="66.8982" r="2.08346" fill="#FF5959"/>
<circle cx="241.102" cy="147.917" r="2.08346" fill="#FF5959"/>
<circle cx="176.287" cy="2.08346" r="2.08346" fill="#FF5959"/>
<circle cx="176.287" cy="83.1018" r="2.08346" fill="#FF5959"/>
<circle cx="257.305" cy="2.08346" r="2.08346" fill="#FF5959"/>
<circle cx="257.305" cy="83.1018" r="2.08346" fill="#FF5959"/>
<circle cx="176.287" cy="18.2871" r="2.08346" fill="#FF5959"/>
<circle cx="176.287" cy="99.3055" r="2.08346" fill="#FF5959"/>
<circle cx="257.305" cy="18.2871" r="2.08346" fill="#FF5959"/>
<circle cx="257.305" cy="99.3055" r="2.08346" fill="#FF5959"/>
<circle cx="176.287" cy="34.4908" r="2.08346" fill="#FF5959"/>
<circle cx="176.287" cy="115.509" r="2.08346" fill="#FF5959"/>
<circle cx="257.305" cy="34.4908" r="2.08346" fill="#FF5959"/>
<circle cx="257.305" cy="115.509" r="2.08346" fill="#FF5959"/>
<circle cx="176.287" cy="50.6944" r="2.08346" fill="#FF5959"/>
<circle cx="176.287" cy="131.713" r="2.08346" fill="#FF5959"/>
<circle cx="257.305" cy="50.6944" r="2.08346" fill="#FF5959"/>
<circle cx="257.305" cy="131.713" r="2.08346" fill="#FF5959"/>
<circle cx="176.287" cy="66.8982" r="2.08346" fill="#FF5959"/>
<circle cx="176.287" cy="147.917" r="2.08346" fill="#FF5959"/>
<circle cx="257.305" cy="66.8982" r="2.08346" fill="#FF5959"/>
<circle cx="257.305" cy="147.917" r="2.08346" fill="#FF5959"/>
<circle cx="192.491" cy="2.08346" r="2.08346" fill="#FF5959"/>
<circle cx="192.491" cy="83.1018" r="2.08346" fill="#FF5959"/>
<circle cx="273.509" cy="2.08346" r="2.08346" fill="#FF5959"/>
<circle cx="273.509" cy="83.1018" r="2.08346" fill="#FF5959"/>
<circle cx="192.491" cy="18.2871" r="2.08346" fill="#FF5959"/>
<circle cx="192.491" cy="99.3055" r="2.08346" fill="#FF5959"/>
<circle cx="273.509" cy="18.2871" r="2.08346" fill="#FF5959"/>
<circle cx="273.509" cy="99.3055" r="2.08346" fill="#FF5959"/>
<circle cx="192.491" cy="34.4908" r="2.08346" fill="#FF5959"/>
<circle cx="192.491" cy="115.509" r="2.08346" fill="#FF5959"/>
<circle cx="273.509" cy="34.4908" r="2.08346" fill="#FF5959"/>
<circle cx="273.509" cy="115.509" r="2.08346" fill="#FF5959"/>
<circle cx="192.491" cy="50.6944" r="2.08346" fill="#FF5959"/>
<circle cx="192.491" cy="131.713" r="2.08346" fill="#FF5959"/>
<circle cx="273.509" cy="50.6944" r="2.08346" fill="#FF5959"/>
<circle cx="273.509" cy="131.713" r="2.08346" fill="#FF5959"/>
<circle cx="192.491" cy="66.8982" r="2.08346" fill="#FF5959"/>
<circle cx="192.491" cy="147.917" r="2.08346" fill="#FF5959"/>
<circle cx="273.509" cy="66.8982" r="2.08346" fill="#FF5959"/>
<circle cx="273.509" cy="147.917" r="2.08346" fill="#FF5959"/>
<circle cx="208.694" cy="2.08346" r="2.08346" fill="#FF5959"/>
<circle cx="208.694" cy="83.1018" r="2.08346" fill="#FF5959"/>
<circle cx="289.713" cy="2.08346" r="2.08346" fill="#FF5959"/>
<circle cx="289.713" cy="83.1018" r="2.08346" fill="#FF5959"/>
<circle cx="208.694" cy="18.2871" r="2.08346" fill="#FF5959"/>
<circle cx="208.694" cy="99.3055" r="2.08346" fill="#FF5959"/>
<circle cx="289.713" cy="18.2871" r="2.08346" fill="#FF5959"/>
<circle cx="289.713" cy="99.3055" r="2.08346" fill="#FF5959"/>
<circle cx="208.694" cy="34.4908" r="2.08346" fill="#FF5959"/>
<circle cx="208.694" cy="115.509" r="2.08346" fill="#FF5959"/>
<circle cx="289.713" cy="34.4908" r="2.08346" fill="#FF5959"/>
<circle cx="289.713" cy="115.509" r="2.08346" fill="#FF5959"/>
<circle cx="208.694" cy="50.6944" r="2.08346" fill="#FF5959"/>
<circle cx="208.694" cy="131.713" r="2.08346" fill="#FF5959"/>
<circle cx="289.713" cy="50.6944" r="2.08346" fill="#FF5959"/>
<circle cx="289.713" cy="131.713" r="2.08346" fill="#FF5959"/>
<circle cx="208.694" cy="66.8982" r="2.08346" fill="#FF5959"/>
<circle cx="208.694" cy="147.917" r="2.08346" fill="#FF5959"/>
<circle cx="289.713" cy="66.8982" r="2.08346" fill="#FF5959"/>
<circle cx="289.713" cy="147.917" r="2.08346" fill="#FF5959"/>
<circle cx="224.898" cy="2.08346" r="2.08346" fill="#FF5959"/>
<circle cx="224.898" cy="83.1018" r="2.08346" fill="#FF5959"/>
<circle cx="305.916" cy="2.08346" r="2.08346" fill="#FF5959"/>
<circle cx="305.916" cy="83.1018" r="2.08346" fill="#FF5959"/>
<circle cx="224.898" cy="18.2871" r="2.08346" fill="#FF5959"/>
<circle cx="224.898" cy="99.3055" r="2.08346" fill="#FF5959"/>
<circle cx="305.916" cy="18.2871" r="2.08346" fill="#FF5959"/>
<circle cx="305.916" cy="99.3055" r="2.08346" fill="#FF5959"/>
<circle cx="224.898" cy="34.4908" r="2.08346" fill="#FF5959"/>
<circle cx="224.898" cy="115.509" r="2.08346" fill="#FF5959"/>
<circle cx="305.916" cy="34.4908" r="2.08346" fill="#FF5959"/>
<circle cx="305.916" cy="115.509" r="2.08346" fill="#FF5959"/>
<circle cx="224.898" cy="50.6944" r="2.08346" fill="#FF5959"/>
<circle cx="224.898" cy="131.713" r="2.08346" fill="#FF5959"/>
<circle cx="305.916" cy="50.6944" r="2.08346" fill="#FF5959"/>
<circle cx="305.916" cy="131.713" r="2.08346" fill="#FF5959"/>
<circle cx="224.898" cy="66.8982" r="2.08346" fill="#FF5959"/>
<circle cx="224.898" cy="147.917" r="2.08346" fill="#FF5959"/>
<circle cx="305.916" cy="66.8982" r="2.08346" fill="#FF5959"/>
<circle cx="305.916" cy="147.917" r="2.08346" fill="#FF5959"/>
</g>
</svg>
